control3min_grf.mot
version=1
nRows=25
nColumns 19
inDegrees=yes
endheader
time	1_ground_force_vx	1_ground_force_vy	1_ground_force_vz	1_ground_force_px	1_ground_force_py	1_ground_force_pz	1_ground_torque_x	1_ground_torque_y	1_ground_torque_z	2_ground_force_vx	2_ground_force_vy	2_ground_force_vz	2_ground_force_px	2_ground_force_py	2_ground_force_pz	2_ground_torque_x	2_ground_torque_y	2_ground_torque_z
            3.751500	          -11.066623	          358.882884	          -34.890180	           -0.262827	            0.006066	           -0.370027	           -0.033514	            1.086827	           -0.105660	            2.520841	          343.706963	           32.479252	           -0.270195	            0.005449	           -0.681200	            0.001807	            0.246395	            0.023284
            3.752000	          -10.606870	          355.997346	          -34.582690	           -0.262694	            0.006066	           -0.370021	           -0.032428	            1.088382	           -0.105729	            2.720101	          340.393822	           32.232705	           -0.270254	            0.005449	           -0.681147	            0.002626	            0.328636	            0.031119
            3.752500	          -10.238395	          352.750668	          -34.138955	           -0.262494	            0.006066	           -0.370065	           -0.031667	            1.091045	           -0.105591	            2.452232	          336.710373	           32.078899	           -0.270350	            0.005449	           -0.681263	            0.002795	            0.383769	            0.036562
            3.753000	          -10.099755	          350.406092	          -33.874209	           -0.262742	            0.006066	           -0.369938	           -0.029830	            1.034932	           -0.100048	            2.509654	          333.764671	           31.927582	           -0.269893	            0.005453	           -0.682001	            0.002785	            0.370428	            0.035435
            3.753500	           -9.777252	          346.618972	          -33.524390	           -0.262519	            0.006065	           -0.369743	           -0.030805	            1.092088	           -0.105625	            2.571626	          329.530760	           31.537024	           -0.270409	            0.005449	           -0.681422	            0.002216	            0.284001	            0.027180
            3.754000	           -9.317628	          343.193060	          -33.310938	           -0.262409	            0.006066	           -0.369876	           -0.031011	            1.142218	           -0.110866	            2.444787	          325.665123	           30.960149	           -0.270244	            0.005449	           -0.681228	            0.002628	            0.350005	            0.033274
            3.754500	           -9.132864	          338.685440	          -33.101434	           -0.262684	            0.006066	           -0.370039	           -0.028663	            1.062940	           -0.103886	            2.690252	          322.536125	           30.761167	           -0.269846	            0.005451	           -0.681321	            0.002704	            0.324128	            0.030913
            3.755000	           -8.672347	          335.978821	          -32.472184	           -0.262579	            0.006066	           -0.369932	           -0.028005	            1.084960	           -0.104861	            2.942200	          317.566997	           30.180189	           -0.270309	            0.005447	           -0.680770	            0.002811	            0.303368	            0.028831
            3.755500	           -8.533381	          333.093024	          -32.118045	           -0.262478	            0.006065	           -0.369808	           -0.027629	            1.078462	           -0.103989	            2.672317	          314.436138	           29.981426	           -0.269701	            0.005451	           -0.681097	            0.003485	            0.410069	            0.039100
            3.756000	           -8.302777	          329.846910	          -31.811540	           -0.262566	            0.006065	           -0.369756	           -0.026960	            1.071057	           -0.103296	            2.682080	          311.675579	           29.502289	           -0.269969	            0.005451	           -0.681372	            0.003461	            0.402175	            0.038069
            3.756500	           -7.888507	          326.239907	          -31.415316	           -0.262141	            0.006065	           -0.369818	           -0.026179	            1.082662	           -0.104255	            2.785667	          308.914354	           29.304681	           -0.269873	            0.005452	           -0.681592	            0.003424	            0.379656	            0.036016
            3.757000	           -7.795644	          323.534729	          -31.152003	           -0.262265	            0.006063	           -0.369171	           -0.025031	            1.038846	           -0.100027	            2.566539	          304.679428	           28.914244	           -0.269283	            0.005454	           -0.681575	            0.003198	            0.379600	            0.036024
            3.757500	           -7.656724	          319.027162	          -30.942392	           -0.262304	            0.006067	           -0.370165	           -0.024777	            1.032386	           -0.100131	            2.669400	          302.102846	           28.576508	           -0.269348	            0.005455	           -0.682018	            0.003335	            0.377380	            0.035697
            3.758000	           -7.380669	          316.682747	          -30.723840	           -0.262420	            0.006065	           -0.369798	           -0.024148	            1.036098	           -0.100520	            2.499095	          297.315835	           28.137152	           -0.269642	            0.005452	           -0.681344	            0.003535	            0.420555	            0.039800
            3.758500	           -7.058588	          312.716178	          -30.558218	           -0.262308	            0.006066	           -0.370030	           -0.024398	            1.080922	           -0.105626	            2.698999	          293.818721	           27.843019	           -0.269832	            0.005451	           -0.681191	            0.003906	            0.425229	            0.040296
            3.759000	           -6.643785	          310.549924	          -29.834823	           -0.262295	            0.006065	           -0.369756	           -0.021935	            1.025300	           -0.098502	            2.664072	          290.504171	           27.737356	           -0.269680	            0.005452	           -0.681327	            0.003953	            0.431009	            0.041153
            3.759500	           -6.459773	          307.665512	          -29.801790	           -0.262250	            0.006064	           -0.369539	           -0.020388	            0.971046	           -0.094060	            2.580738	          287.559635	           27.116817	           -0.269556	            0.005452	           -0.681397	            0.004402	            0.490493	            0.046253
            3.760000	           -6.182966	          303.697951	          -29.406774	           -0.262143	            0.006066	           -0.369866	           -0.020625	            1.013072	           -0.098095	            2.873657	          284.247167	           26.776374	           -0.269886	            0.005454	           -0.682136	            0.003733	            0.369290	            0.034787
            3.760500	           -5.677352	          300.091555	          -29.148349	           -0.262207	            0.006065	           -0.369767	           -0.020335	            1.074867	           -0.104403	            2.509471	          281.299608	           26.719092	           -0.269488	            0.005455	           -0.682085	            0.003569	            0.400096	            0.038003
            3.761000	           -5.309072	          296.665036	          -28.797099	           -0.262049	            0.006066	           -0.369960	           -0.019034	            1.063617	           -0.103245	            2.801848	          278.170276	           26.660875	           -0.269564	            0.005455	           -0.682067	            0.003884	            0.385563	            0.036954
            3.761500	           -5.170058	          294.139574	          -28.395558	           -0.262218	            0.006064	           -0.369480	           -0.018408	            1.047305	           -0.101104	            2.771388	          273.568248	           26.128259	           -0.269086	            0.005456	           -0.681852	            0.003808	            0.375885	            0.035900
            3.762000	           -4.893857	          291.614728	          -28.131927	           -0.261932	            0.006063	           -0.369331	           -0.016601	            0.989195	           -0.095427	            3.021341	          269.151542	           25.549253	           -0.269562	            0.005452	           -0.681170	            0.004634	            0.412804	            0.039185
            3.762500	           -4.341716	          288.007161	          -27.598480	           -0.261946	            0.006064	           -0.369437	           -0.015065	            0.999353	           -0.095764	            2.936179	          266.758089	           25.306110	           -0.269632	            0.005453	           -0.681560	            0.005107	            0.464010	            0.044018
            3.763000	           -4.020208	          285.303011	          -27.565015	           -0.261623	            0.006063	           -0.369264	           -0.014720	            1.044661	           -0.100932	            2.902498	          263.075989	           25.011420	           -0.269440	            0.005452	           -0.681144	            0.005139	            0.465784	            0.044283
            3.763500	           -3.651832	          282.597161	          -27.118961	           -0.261767	            0.006064	           -0.369488	           -0.013796	            1.067630	           -0.102453	            2.820577	          259.762441	           24.577280	           -0.269754	            0.005453	           -0.681659	            0.004605	            0.424131	            0.040129
